<svg xmlns="http://www.w3.org/2000/svg" width="1200" height="900" viewBox="0 0 800 600" role="img" aria-labelledby="title desc">
  <title>Mini Prayer Wheel</title>
  <desc>Small brass prayer wheel</desc>
  <defs>
    <linearGradient id="bg" x1="0" y1="0" x2="1" y2="1">
      <stop offset="0%" stop-color="#f6efe3"/>
      <stop offset="100%" stop-color="#eadfce"/>
    </linearGradient>
  </defs>
  <rect width="800" height="600" fill="url(#bg)"/>
  <circle cx="115" cy="98" r="72" fill="#f0dfca" opacity="0.8"/>
  <circle cx="685" cy="508" r="92" fill="#efe4d2" opacity="0.8"/>
  <text x="60" y="74" font-size="16" font-family="Georgia, serif" letter-spacing="4" fill="#b86245">HANDICRAFT NEPAL</text>
  <text x="60" y="112" font-size="38" font-family="Georgia, serif" font-weight="700" fill="#2f1f19">Mini Prayer Wheel</text>
  <text x="60" y="142" font-size="18" font-family="Arial, sans-serif" fill="#6b4a35">Meditation</text>
  <g><rect x="375" y="315" width="50" height="95" rx="18" fill="#8c674c"/><circle cx="400" cy="260" r="78" fill="#d2a56c" stroke="#8c674c" stroke-width="12"/><line x1="400" y1="260" x2="470.0" y2="260.0" stroke="#8c674c" stroke-width="8"/><line x1="400" y1="260" x2="449.5" y2="309.5" stroke="#8c674c" stroke-width="8"/><line x1="400" y1="260" x2="400.1" y2="330.0" stroke="#8c674c" stroke-width="8"/><line x1="400" y1="260" x2="350.6" y2="309.6" stroke="#8c674c" stroke-width="8"/><line x1="400" y1="260" x2="330.0" y2="260.1" stroke="#8c674c" stroke-width="8"/><line x1="400" y1="260" x2="350.4" y2="210.6" stroke="#8c674c" stroke-width="8"/><line x1="400" y1="260" x2="399.8" y2="190.0" stroke="#8c674c" stroke-width="8"/><line x1="400" y1="260" x2="449.4" y2="210.4" stroke="#8c674c" stroke-width="8"/></g>
  <text x="60" y="520" font-size="22" font-family="Arial, sans-serif" fill="#6b4a35">Small brass prayer wheel</text>
  <text x="60" y="558" font-size="16" font-family="Arial, sans-serif" fill="#8c674c">Handmade craft product image for the online store</text>
</svg>