<svg xmlns="http://www.w3.org/2000/svg" width="1200" height="900" viewBox="0 0 800 600" role="img" aria-labelledby="title desc">
  <title>Yak Wool Blanket</title>
  <desc>Warm woven blanket for home and travel</desc>
  <defs>
    <linearGradient id="bg" x1="0" y1="0" x2="1" y2="1">
      <stop offset="0%" stop-color="#f6efe3"/>
      <stop offset="100%" stop-color="#eadfce"/>
    </linearGradient>
  </defs>
  <rect width="800" height="600" fill="url(#bg)"/>
  <circle cx="115" cy="98" r="72" fill="#f0dfca" opacity="0.8"/>
  <circle cx="685" cy="508" r="92" fill="#efe4d2" opacity="0.8"/>
  <text x="60" y="74" font-size="16" font-family="Georgia, serif" letter-spacing="4" fill="#b86245">HANDICRAFT NEPAL</text>
  <text x="60" y="112" font-size="38" font-family="Georgia, serif" font-weight="700" fill="#2f1f19">Yak Wool Blanket</text>
  <text x="60" y="142" font-size="18" font-family="Arial, sans-serif" fill="#6b4a35">Textiles</text>
  <g><rect x="250" y="180" width="300" height="190" rx="24" fill="#b86245" opacity="0.9"/><path d="M280 210 H520" stroke="#f3dfc8" stroke-width="10" stroke-dasharray="12 12"/><path d="M280 265 H520" stroke="#f3dfc8" stroke-width="10" stroke-dasharray="12 12"/><path d="M280 320 H520" stroke="#f3dfc8" stroke-width="10" stroke-dasharray="12 12"/><g stroke="#f3dfc8" stroke-width="4"><line x1="270" y1="370" x2="270" y2="410"/><line x1="290" y1="370" x2="290" y2="410"/><line x1="310" y1="370" x2="310" y2="410"/><line x1="330" y1="370" x2="330" y2="410"/><line x1="350" y1="370" x2="350" y2="410"/><line x1="370" y1="370" x2="370" y2="410"/><line x1="390" y1="370" x2="390" y2="410"/><line x1="410" y1="370" x2="410" y2="410"/><line x1="430" y1="370" x2="430" y2="410"/><line x1="450" y1="370" x2="450" y2="410"/><line x1="470" y1="370" x2="470" y2="410"/><line x1="490" y1="370" x2="490" y2="410"/><line x1="510" y1="370" x2="510" y2="410"/><line x1="530" y1="370" x2="530" y2="410"/></g></g>
  <text x="60" y="520" font-size="22" font-family="Arial, sans-serif" fill="#6b4a35">Warm woven blanket for home and travel</text>
  <text x="60" y="558" font-size="16" font-family="Arial, sans-serif" fill="#8c674c">Handmade craft product image for the online store</text>
</svg>